<mxfile host="app.diagrams.net" modified="2021-02-08T13:54:44.128Z" agent="5.0 (Macintosh; Intel Mac OS X 10_15_7) AppleWebKit/537.36 (KHTML, like Gecko) Chrome/88.0.4324.150 Safari/537.36" etag="QrV7gb8lN-wzRuNmlHHl" version="14.2.9" type="github">
  <diagram id="YXEZ-63aJaoMx2h4u_g6" name="Page-1">
    <mxGraphModel dx="2084" dy="843" grid="1" gridSize="10" guides="1" tooltips="1" connect="1" arrows="1" fold="1" page="1" pageScale="1" pageWidth="827" pageHeight="1169" math="0" shadow="0">
      <root>
        <mxCell id="0" />
        <mxCell id="1" parent="0" />
        <mxCell id="gLNOnYdfMC5AI39kPb_9-2" value="&lt;b&gt;etcd&lt;/b&gt;" style="shape=cylinder3;whiteSpace=wrap;html=1;boundedLbl=1;backgroundOutline=1;size=15;fillColor=#f5f5f5;strokeColor=#666666;fontColor=#333333;" vertex="1" parent="1">
          <mxGeometry x="180" y="250" width="60" height="80" as="geometry" />
        </mxCell>
        <mxCell id="gLNOnYdfMC5AI39kPb_9-3" value="Runtime" style="rounded=0;whiteSpace=wrap;html=1;" vertex="1" parent="1">
          <mxGeometry x="50" y="510" width="80" height="40" as="geometry" />
        </mxCell>
        <mxCell id="gLNOnYdfMC5AI39kPb_9-4" value="Runtime" style="rounded=0;whiteSpace=wrap;html=1;" vertex="1" parent="1">
          <mxGeometry x="160" y="510" width="80" height="40" as="geometry" />
        </mxCell>
        <mxCell id="gLNOnYdfMC5AI39kPb_9-5" value="......" style="rounded=0;whiteSpace=wrap;html=1;" vertex="1" parent="1">
          <mxGeometry x="270" y="510" width="80" height="40" as="geometry" />
        </mxCell>
        <mxCell id="gLNOnYdfMC5AI39kPb_9-6" value="" style="endArrow=classic;html=1;exitX=0.5;exitY=0;exitDx=0;exitDy=0;entryX=0;entryY=1;entryDx=0;entryDy=-15;entryPerimeter=0;" edge="1" parent="1" source="gLNOnYdfMC5AI39kPb_9-3" target="gLNOnYdfMC5AI39kPb_9-2">
          <mxGeometry width="50" height="50" relative="1" as="geometry">
            <mxPoint x="140" y="400" as="sourcePoint" />
            <mxPoint x="190" y="350" as="targetPoint" />
          </mxGeometry>
        </mxCell>
        <mxCell id="gLNOnYdfMC5AI39kPb_9-8" value="watch" style="edgeLabel;html=1;align=center;verticalAlign=middle;resizable=0;points=[];" vertex="1" connectable="0" parent="gLNOnYdfMC5AI39kPb_9-6">
          <mxGeometry x="0.0166" relative="1" as="geometry">
            <mxPoint as="offset" />
          </mxGeometry>
        </mxCell>
        <mxCell id="gLNOnYdfMC5AI39kPb_9-7" value="" style="endArrow=classic;html=1;exitX=0.5;exitY=0;exitDx=0;exitDy=0;entryX=0.5;entryY=1;entryDx=0;entryDy=0;entryPerimeter=0;" edge="1" parent="1" source="gLNOnYdfMC5AI39kPb_9-4" target="gLNOnYdfMC5AI39kPb_9-2">
          <mxGeometry width="50" height="50" relative="1" as="geometry">
            <mxPoint x="100" y="520" as="sourcePoint" />
            <mxPoint x="190" y="325" as="targetPoint" />
          </mxGeometry>
        </mxCell>
        <mxCell id="gLNOnYdfMC5AI39kPb_9-9" value="watch" style="edgeLabel;html=1;align=center;verticalAlign=middle;resizable=0;points=[];" vertex="1" connectable="0" parent="gLNOnYdfMC5AI39kPb_9-7">
          <mxGeometry x="0.0898" y="-2" relative="1" as="geometry">
            <mxPoint as="offset" />
          </mxGeometry>
        </mxCell>
        <mxCell id="gLNOnYdfMC5AI39kPb_9-10" value="" style="endArrow=classic;html=1;exitX=0.5;exitY=0;exitDx=0;exitDy=0;entryX=0.967;entryY=0.913;entryDx=0;entryDy=0;entryPerimeter=0;" edge="1" parent="1" source="gLNOnYdfMC5AI39kPb_9-5" target="gLNOnYdfMC5AI39kPb_9-2">
          <mxGeometry width="50" height="50" relative="1" as="geometry">
            <mxPoint x="210" y="520" as="sourcePoint" />
            <mxPoint x="220" y="340" as="targetPoint" />
          </mxGeometry>
        </mxCell>
        <mxCell id="gLNOnYdfMC5AI39kPb_9-11" value="watch" style="edgeLabel;html=1;align=center;verticalAlign=middle;resizable=0;points=[];" vertex="1" connectable="0" parent="gLNOnYdfMC5AI39kPb_9-10">
          <mxGeometry x="0.0898" y="-2" relative="1" as="geometry">
            <mxPoint as="offset" />
          </mxGeometry>
        </mxCell>
        <mxCell id="gLNOnYdfMC5AI39kPb_9-12" value="Rule" style="rounded=0;whiteSpace=wrap;html=1;" vertex="1" parent="1">
          <mxGeometry x="400" y="360" width="120" height="60" as="geometry" />
        </mxCell>
        <mxCell id="gLNOnYdfMC5AI39kPb_9-13" value="" style="endArrow=classic;html=1;exitX=0;exitY=0.5;exitDx=0;exitDy=0;entryX=1;entryY=0.5;entryDx=0;entryDy=0;entryPerimeter=0;dashed=1;strokeColor=#FF6666;" edge="1" parent="1" source="gLNOnYdfMC5AI39kPb_9-12" target="gLNOnYdfMC5AI39kPb_9-2">
          <mxGeometry width="50" height="50" relative="1" as="geometry">
            <mxPoint x="290" y="240" as="sourcePoint" />
            <mxPoint x="340" y="190" as="targetPoint" />
          </mxGeometry>
        </mxCell>
        <mxCell id="gLNOnYdfMC5AI39kPb_9-15" value="update" style="edgeLabel;html=1;align=center;verticalAlign=middle;resizable=0;points=[];" vertex="1" connectable="0" parent="gLNOnYdfMC5AI39kPb_9-13">
          <mxGeometry x="0.0805" relative="1" as="geometry">
            <mxPoint as="offset" />
          </mxGeometry>
        </mxCell>
        <mxCell id="gLNOnYdfMC5AI39kPb_9-16" value="" style="endArrow=classic;html=1;dashed=1;exitX=0;exitY=0;exitDx=0;exitDy=52.5;exitPerimeter=0;entryX=0;entryY=0;entryDx=0;entryDy=0;strokeColor=#FF6666;" edge="1" parent="1" source="gLNOnYdfMC5AI39kPb_9-2" target="gLNOnYdfMC5AI39kPb_9-3">
          <mxGeometry width="50" height="50" relative="1" as="geometry">
            <mxPoint y="350" as="sourcePoint" />
            <mxPoint x="50" y="300" as="targetPoint" />
            <Array as="points">
              <mxPoint x="110" y="340" />
              <mxPoint x="70" y="390" />
              <mxPoint x="40" y="450" />
            </Array>
          </mxGeometry>
        </mxCell>
        <mxCell id="gLNOnYdfMC5AI39kPb_9-17" value="hot update" style="edgeLabel;html=1;align=center;verticalAlign=middle;resizable=0;points=[];" vertex="1" connectable="0" parent="gLNOnYdfMC5AI39kPb_9-16">
          <mxGeometry x="0.3176" y="-4" relative="1" as="geometry">
            <mxPoint as="offset" />
          </mxGeometry>
        </mxCell>
        <mxCell id="gLNOnYdfMC5AI39kPb_9-18" value="" style="endArrow=classic;html=1;dashed=1;exitX=0;exitY=0;exitDx=0;exitDy=0;entryX=0;entryY=1;entryDx=0;entryDy=0;strokeColor=#FF6666;" edge="1" parent="1" source="gLNOnYdfMC5AI39kPb_9-3" target="gLNOnYdfMC5AI39kPb_9-3">
          <mxGeometry width="50" height="50" relative="1" as="geometry">
            <mxPoint x="70" y="650" as="sourcePoint" />
            <mxPoint x="120" y="600" as="targetPoint" />
            <Array as="points">
              <mxPoint x="20" y="510" />
              <mxPoint x="10" y="530" />
              <mxPoint x="30" y="550" />
            </Array>
          </mxGeometry>
        </mxCell>
        <mxCell id="gLNOnYdfMC5AI39kPb_9-20" value="compile" style="edgeLabel;html=1;align=center;verticalAlign=middle;resizable=0;points=[];" vertex="1" connectable="0" parent="gLNOnYdfMC5AI39kPb_9-18">
          <mxGeometry x="0.0827" y="1" relative="1" as="geometry">
            <mxPoint y="1" as="offset" />
          </mxGeometry>
        </mxCell>
      </root>
    </mxGraphModel>
  </diagram>
</mxfile>
